<?xml version="1.0" encoding="UTF-8" standalone="no"?>
<!-- Created with Inkscape (http://www.inkscape.org/) -->

<svg
   width="86.923271mm"
   height="86.923271mm"
   viewBox="0 0 86.923271 86.923271"
   version="1.1"
   id="svg1"
   xmlns:inkscape="http://www.inkscape.org/namespaces/inkscape"
   xmlns:sodipodi="http://sodipodi.sourceforge.net/DTD/sodipodi-0.dtd"
   xmlns="http://www.w3.org/2000/svg"
   xmlns:svg="http://www.w3.org/2000/svg">
  <sodipodi:namedview
     id="namedview1"
     pagecolor="#ffffff"
     bordercolor="#000000"
     borderopacity="0.25"
     inkscape:showpageshadow="2"
     inkscape:pageopacity="0.0"
     inkscape:pagecheckerboard="0"
     inkscape:deskcolor="#d1d1d1"
     inkscape:document-units="mm">
    <inkscape:page
       x="0"
       y="0"
       width="86.923271"
       height="86.923271"
       id="page2"
       margin="0"
       bleed="0" />
  </sodipodi:namedview>
  <defs
     id="defs1" />
  <g
     inkscape:label="Layer 1"
     inkscape:groupmode="layer"
     id="layer1"
     transform="translate(-35.259853,-45.929547)">
    <g
       id="g28"
       transform="translate(-2.3421269,-47.623247)"
       style="fill:#ccbb6d;fill-opacity:1;stroke:#ffffff;stroke-linecap:butt;stroke-linejoin:round;stroke-dasharray:none;stroke-dashoffset:0;stroke-opacity:1"
       inkscape:export-filename="g28.svg"
       inkscape:export-xdpi="96"
       inkscape:export-ydpi="96">
      <rect
         style="fill:#000000;fill-opacity:1;stroke:#ffffff;stroke-width:0.264583;stroke-linecap:butt;stroke-linejoin:round;stroke-dasharray:none;stroke-dashoffset:0;stroke-opacity:1"
         id="rect30"
         width="86.658691"
         height="86.658691"
         x="37.734272"
         y="93.685081" />
      <path
         style="fill:#ccbb6d;fill-opacity:1;stroke:#f0ebaf;stroke-width:0.511467;stroke-linecap:butt;stroke-linejoin:round;stroke-dasharray:none;stroke-dashoffset:0;stroke-opacity:1"
         id="path22"
         d="m 73.266886,98.242947 c -2.277976,3.447623 -4.720295,6.788583 -7.421956,9.871333 -1.733609,1.97815 -2.982285,3.1742 -4.807322,5.00307 -4.168248,3.88862 0.0036,0.0113 -3.56003,3.28629 -0.715866,0.65787 -2.195857,1.80824 -2.568768,2.81561 -0.111998,0.30254 -0.09042,0.64353 -0.135636,0.96532 0.04788,0.36719 0.06304,0.74101 0.143634,1.1016 0.159616,0.71426 0.692652,2.09537 0.891238,2.7469 0.625182,2.05116 0.987333,4.11659 1.31843,6.24001 0.414227,3.54133 0.788975,7.13297 0.286353,10.69165 -0.502831,3.56017 -1.103155,5.43108 -2.017091,8.95321 -1.763954,6.23779 -4.005218,12.30262 -6.583542,18.20248 -0.63641,1.35746 -0.338319,0.7256 -0.893139,1.89619 0,0 3.173953,1.92779 3.173953,1.92779 v 0 c 0.523317,-1.19556 0.241449,-0.5492 0.84469,-1.93954 2.419351,-6.00816 4.554259,-12.14306 6.36592,-18.39292 0.81783,-3.02296 1.668228,-5.83566 2.179026,-8.9359 0.588505,-3.57187 0.194703,-7.17819 -0.189807,-10.74475 -0.302557,-2.12524 -0.634197,-4.21363 -1.22806,-6.27304 -0.259425,-0.89963 -0.646706,-1.75504 -0.88132,-2.66242 -0.08454,-0.32698 -0.116579,-0.66691 -0.174866,-1.00036 0.01563,-0.2677 -0.03532,-0.54971 0.04691,-0.80312 0.174637,-0.5381 0.959557,-1.33242 1.275668,-1.65927 1.497969,-1.54876 3.131576,-2.94227 4.634099,-4.48588 1.678755,-1.72191 3.188492,-3.22896 4.788777,-5.05193 2.719212,-3.09761 5.165126,-6.44956 7.663504,-9.74747 z" />
      <path
         style="fill:#ccbb6d;fill-opacity:1;stroke:#f0ebaf;stroke-width:0.47836;stroke-linecap:butt;stroke-linejoin:round;stroke-dasharray:none;stroke-dashoffset:0;stroke-opacity:1"
         id="path24"
         d="m 60.993874,128.27416 c 2.813632,-0.66984 5.667435,-1.08377 8.520065,-1.40973 2.168136,-0.18432 4.423683,-0.28141 6.549175,0.401 0.307746,0.0988 0.603232,0.24839 0.90485,0.37258 0.245411,0.15716 0.985451,0.61927 0.736232,0.47147 -0.715575,-0.42436 -1.353103,-1.13306 -2.135534,-1.30131 -0.276035,-0.0594 0.309286,0.58956 0.379171,0.92362 0.08774,0.41943 0.105636,0.86275 0.08499,1.29511 -0.05619,1.17661 -0.356394,2.07501 -0.645654,3.18652 -1.230737,4.27988 -3.505846,6.60864 -6.40444,9.19511 -1.681277,1.1967 -3.384187,2.69802 -5.396724,2.80143 -0.983547,0.0505 -1.315957,-0.13217 -2.244246,-0.41235 -2.444535,-1.53953 0.663823,0.58656 1.046627,0.73772 0.252047,0.0995 -0.385315,-0.45226 -0.540236,-0.71647 -0.505622,-0.86232 -0.484014,-1.41858 -0.363043,-2.40525 0.232666,-0.63187 0.270946,-0.92377 0.731403,-1.38576 1.109761,-1.11347 3.293114,-1.24409 4.65958,-1.45056 0.689244,-0.0739 1.698725,-0.25242 2.406196,-0.0732 0.361334,0.0915 1.34427,0.73019 1.034909,0.48278 -3.389264,-2.71045 -1.558939,-0.94411 -1.075246,-0.0772 0.208674,0.37401 0.342139,0.8038 0.513209,1.2057 0.08098,0.4541 0.213509,0.8988 0.242939,1.3623 0.11863,1.86841 -0.521097,4.25833 -1.486995,5.69919 -0.299003,0.44603 -0.672664,0.80747 -1.008996,1.21121 -2.111918,2.09681 -4.655104,3.11138 -7.231881,3.95239 0.666894,0.48073 -1.645701,0.009 -1.316185,0.38854 0.840366,0.96752 1.805833,1.77893 2.815085,2.45915 0.245722,0.16562 0.560285,0.001 0.840411,0.005 4.838102,0.0582 -2.694143,-0.0167 2.846066,0.0358 2.815578,-0.0563 5.624915,0.12062 8.433026,0.34435 1.480946,0.2762 3.120935,0.13685 4.560896,0.72024 0.221959,0.0899 0.844211,0.49381 0.632428,0.37227 -0.761735,-0.43718 -1.521535,-0.87944 -2.282301,-1.31917 0.03683,0.34851 0.125487,0.69456 0.110496,1.04552 -0.08948,2.09472 -1.324485,4.79885 -2.180547,6.5958 -0.878691,1.93263 -2.031127,3.61175 -3.271631,5.20055 -0.629726,0.73527 -1.197965,1.54189 -1.764329,2.3491 -0.112954,0.16099 -0.205262,0.35128 -0.345149,0.47616 -0.113975,0.10174 -0.263254,0.12299 -0.39488,0.18448 -0.487532,0.009 -0.453862,0.066 -0.925455,-0.16617 -0.158382,-0.078 -0.606331,-0.38474 -0.458042,-0.28094 3.648004,2.55343 2.445304,1.81475 1.328837,0.523 -0.722354,-0.86816 -1.310291,-1.87834 -1.913654,-2.86865 0,0 -2.927011,-1.55066 -2.927011,-1.55066 v 0 c 0.615983,0.99041 1.188634,2.02529 1.895961,2.92433 1.417041,1.74464 1.687532,1.74166 4.128485,3.41523 0.260466,0.17858 0.728685,0.30912 1.025317,0.29743 0.176569,-0.007 0.347388,-0.0794 0.521083,-0.11904 0.153334,-0.1071 0.323599,-0.18382 0.459999,-0.32132 0.05907,-0.0596 0.693106,-1.00731 0.719396,-1.04424 0.436885,-0.61367 0.902524,-1.19718 1.363051,-1.78352 1.23894,-1.62653 2.41381,-3.32888 3.291664,-5.29271 0.898725,-1.94448 2.057847,-4.56222 2.275271,-6.7927 0.04035,-0.41389 -0.006,-0.8337 -0.009,-1.25055 -1.049243,-0.8839 -2.071821,-1.81779 -3.147731,-2.6517 -0.35806,-0.27752 -1.127624,-0.42233 -1.505346,-0.49345 -1.226186,-0.23086 -2.467233,-0.3035 -3.700764,-0.44773 -2.808137,-0.22556 -5.617066,-0.37157 -8.43232,-0.31895 -0.659683,-0.0145 -2.186046,-0.0333 -2.887651,-0.10152 -0.275945,-0.0268 -1.007951,-0.39499 -0.822344,-0.14219 1.966816,2.67891 1.835828,2.40461 3.642854,1.81082 2.59811,-0.90573 5.153499,-2.01841 7.282171,-4.1456 0.352882,-0.42576 0.744753,-0.80754 1.058644,-1.2773 1.007321,-1.50755 1.672554,-4.00266 1.608629,-5.95239 -0.0161,-0.49118 -0.13644,-0.96871 -0.204661,-1.45307 -0.161122,-0.42919 -0.284326,-0.88321 -0.483365,-1.28758 -0.991116,-2.01351 -2.472867,-2.60906 -4.305596,-3.817 -0.333601,-0.21988 -0.715526,-0.32277 -1.08982,-0.39125 -0.699613,-0.128 -1.73508,0.0581 -2.412571,0.14145 -1.491193,0.24295 -3.649249,0.38374 -4.838387,1.64709 -0.502805,0.53419 -0.552854,0.85893 -0.818857,1.56695 -0.04743,0.30366 -0.133072,0.60197 -0.142286,0.91098 -0.0954,3.19931 3.415183,4.66526 5.318209,5.65796 0.958558,0.22884 1.297444,0.39184 2.30088,0.28298 2.029259,-0.22015 3.738373,-1.74287 5.43254,-2.98802 2.848873,-2.5814 5.351186,-5.11805 6.53994,-9.37312 0.404502,-1.49688 0.925831,-3.08555 0.705993,-4.7049 -0.05077,-0.37398 -0.08202,-0.82528 -0.318913,-1.06759 -1.832869,-1.87478 -2.451582,-2.15919 -4.041917,-3.03657 -0.305309,-0.10854 -0.605974,-0.2393 -0.915925,-0.32564 -2.146864,-0.59795 -4.396899,-0.50172 -6.572935,-0.28867 -2.884168,0.34903 -5.760042,0.81532 -8.622717,1.36937 z" />
      <path
         style="fill:#ccbb6d;fill-opacity:1;stroke:#f0ebaf;stroke-width:0.512029;stroke-linecap:butt;stroke-linejoin:round;stroke-dasharray:none;stroke-dashoffset:0;stroke-opacity:1"
         id="path28"
         d="m 87.163083,117.93633 c 0.148858,2.3838 -0.136807,4.77613 -0.407788,7.14042 -0.290938,2.54256 -1.110264,4.96125 -1.974948,7.34262 -0.310746,0.87515 -0.672022,1.72811 -1.150095,2.51797 -0.03792,0.0462 -0.08445,0.19128 -0.113763,0.1387 -0.04032,-0.0724 -0.01793,-0.27936 0.05496,-0.24415 1.084984,0.52435 2.023307,1.36944 3.148476,1.79233 0.175747,0.066 0.04741,-0.38621 0.08784,-0.57601 0.115421,-0.54192 0.333542,-1.23173 0.487843,-1.75079 0.472992,-1.51907 0.835985,-3.07219 1.31133,-4.59052 0.350132,-1.11836 0.399857,-1.20404 0.807273,-2.28362 0.384373,-0.97832 0.829073,-1.92998 1.326895,-2.8511 0.138085,-0.25549 0.263495,-0.52038 0.428494,-0.75798 0.517177,-0.74473 0.818274,-0.95088 1.487064,-1.56916 1.032198,-0.88526 2.199446,-1.57125 3.470682,-2.00583 0.58177,-0.19888 0.788384,-0.22599 1.368704,-0.34945 1.080672,-0.12528 2.166582,0.051 3.18567,0.43595 0.18165,0.0686 0.35638,0.15562 0.53456,0.23343 1.69939,1.02715 -1.658488,-1.00734 -2.416908,-1.36362 -0.11186,-0.0525 0.12715,0.2263 0.14304,0.35289 0.077,0.61292 -0.27707,1.32658 -0.49292,1.86858 -0.482358,1.00505 -0.792504,2.07093 -1.084783,3.14766 -0.624011,2.29879 -0.03565,0.15343 -0.693829,2.54383 -0.414523,1.6145 -0.829301,3.24665 -0.88502,4.92645 -0.02856,0.86175 0.02488,1.21889 0.09487,2.0671 0.172756,1.27533 0.435797,2.57943 1.019924,3.72929 0.08286,0.16314 0.183663,0.31573 0.275491,0.47359 1.396947,1.7256 3.662495,2.96516 5.856455,2.70914 0.22339,-0.026 0.44283,-0.0807 0.66425,-0.12107 1.51529,-0.32744 2.94407,-0.94241 4.32129,-1.66214 0.38978,-0.1743 0.73663,-0.4258 1.08706,-0.66978 0.0391,-0.0272 0.25063,-0.16361 0.29797,-0.22444 0.0337,-0.0433 0.0511,-0.098 0.0767,-0.14699 0.33997,-1.52562 0.15095,-0.31884 -3.27735,-2.16588 -0.01,-0.005 -0.52806,0.1989 -0.56683,0.21404 -0.77044,0.3929 -1.5121,0.84445 -2.24274,1.31151 -1.41221,0.92013 -2.86342,1.7736 -4.338398,2.57976 -0.50125,0.27395 -1.001005,0.55155 -1.511602,0.80611 -0.596106,0.29718 -1.204996,0.56574 -1.807495,0.84861 -3.412943,1.5185 -6.999051,2.53516 -10.580444,3.51662 -0.531513,0.15068 -1.085656,0.29737 -1.610548,0.47946 -0.2409,0.0836 -0.913371,0.2595 -0.883398,0.67683 0.01046,0.14549 0.115894,0.26572 0.173841,0.39857 1.253092,0.66675 2.456716,1.44552 3.75928,2.00024 0.334087,0.14229 0.720734,0.0447 1.08138,0.0612 0.49238,0.0224 0.984933,0.0413 1.477597,0.0556 1.894942,0.055 3.791221,0.0733 5.686616,0.10419 3.220466,0.0512 6.440701,-0.025 9.660741,-0.07 0.77609,0.0324 1.60111,-0.1121 2.36133,0.12359 0.10859,0.0337 0.20934,0.0903 0.31402,0.13547 -0.97571,-0.56922 -1.95143,-1.13845 -2.92713,-1.70767 0.0734,0.0588 0.15981,0.10349 0.22033,0.17652 0.18929,0.22849 0.27108,0.54161 0.31436,0.8298 0.16223,1.08021 -0.0289,1.93568 -0.22204,2.99331 -0.1371,0.45971 -0.24921,0.92829 -0.41129,1.3791 -0.40726,1.13276 -0.89255,2.10777 -1.46968,3.15901 -0.96196,1.75218 -2.068,3.40151 -3.188498,5.0454 -1.871213,2.72125 -4.109926,5.13123 -6.547978,7.3051 -0.592705,0.52849 -1.19116,1.05166 -1.81736,1.53655 -0.521027,0.40344 -1.080379,0.75035 -1.620565,1.12554 0.967625,1.83076 -3.354543,-0.4844 -2.664846,0.0989 0.49663,0.42001 1.30993,1.26924 1.760777,0.79664 0.421183,-0.4415 -0.822274,-0.90703 -1.180009,-1.40543 -0.937615,-1.30632 -1.24007,-2.09385 -1.940987,-3.54572 -0.519083,-1.37816 -0.919519,-2.19327 -1.117604,-3.66335 -0.159602,-1.1845 -0.07764,-2.38263 0.173276,-3.54524 0.304296,-1.40999 0.551795,-1.75528 1.145892,-3.01461 0.611755,-0.97779 1.29517,-1.96181 2.256096,-2.60498 0.224514,-0.15026 0.456115,-0.32959 0.721224,-0.36229 0.639827,-0.079 1.44351,0.45729 1.941066,0.71162 -0.534193,-0.28355 -1.596471,-1.47446 -1.602574,-0.85061 -0.0069,0.70367 1.077358,0.85191 1.598165,1.30096 0.91994,0.79316 3.13563,2.86941 3.934557,3.62123 1.12726,1.06081 3.412689,3.24152 4.54176,4.31726 1.669288,1.59264 3.353658,3.16801 5.039978,4.74104 0.81011,0.75568 1.61547,1.51062 2.45661,2.2285 0.60362,0.47054 0.31728,0.26151 0.85393,0.63455 0,0 3.41677,1.37707 3.41677,1.37707 v 0 c -0.60684,-0.36369 -0.28447,-0.15655 -0.96045,-0.6325 -0.93184,-0.73598 -1.81644,-1.52151 -2.70564,-2.31283 -1.79378,-1.59634 -3.57764,-3.205 -5.32619,-4.85504 -2.179838,-2.07238 -4.335027,-4.17216 -6.511678,-6.24802 -0.416262,-0.39697 -2.609548,-2.4924 -3.194642,-2.89532 -1.380584,-0.9507 -2.837195,-1.77616 -4.255792,-2.66424 -0.797732,-0.33189 -1.331154,-0.72909 -2.214611,-0.50659 -0.275203,0.0692 -0.504889,0.27255 -0.731711,0.44887 -0.945125,0.73471 -1.604474,1.77858 -2.206866,2.81119 -0.580869,1.29856 -0.837009,1.69757 -1.148109,3.13339 -0.258949,1.19511 -0.365321,2.4527 -0.209587,3.67345 0.187959,1.47335 0.61525,2.37376 1.126386,3.75163 0.694824,1.49911 0.962672,2.22089 1.861373,3.5962 0.331063,0.50662 0.613711,1.08181 1.082811,1.45214 1.296053,1.02312 2.693211,1.91811 4.14755,2.67682 0.390131,0.20353 0.868343,0.23417 1.299672,0.16492 0.493245,-0.0792 0.922297,-0.39708 1.383447,-0.59561 0.515855,-0.40171 1.045844,-0.78449 1.547565,-1.20512 0.605985,-0.50806 1.189486,-1.04464 1.773792,-1.57946 1.127429,-1.03194 2.723125,-2.53679 3.762602,-3.66538 1.170258,-1.27057 1.891718,-2.26247 2.944258,-3.62426 1.13883,-1.64923 2.26289,-3.30088 3.25983,-5.04906 0.56568,-0.99196 1.15378,-2.09636 1.58386,-3.16498 0.18213,-0.45254 0.31521,-0.92479 0.47282,-1.38719 0.098,-0.41012 0.21568,-0.81567 0.29388,-1.23035 0.10787,-0.57203 0.16729,-1.2255 0.14629,-1.81423 -0.01,-0.25811 -0.0678,-0.73405 -0.1752,-0.99362 -0.0433,-0.10456 -0.11985,-0.19049 -0.17977,-0.28572 -1.15079,-0.67693 -2.28662,-1.38211 -3.45234,-2.03076 -0.12463,-0.0694 -0.62716,-0.11105 -0.74012,-0.11625 -0.62237,-0.0285 -1.24573,0.0424 -1.86653,0.0689 -3.150658,0.17857 -6.306063,0.27756 -9.461596,0.19903 -1.922713,-0.0286 -3.845471,-0.0555 -5.76516,-0.18308 -0.516992,-0.0343 -1.034207,-0.071 -1.549026,-0.131 -0.387962,-0.0453 -1.430067,-0.47568 -1.157637,-0.18478 0.707956,0.75594 1.714125,1.12944 2.571189,1.69416 -0.111951,0.0153 -0.223152,0.0526 -0.335853,0.0457 -0.02548,-0.002 -0.05388,-0.0479 -0.03838,-0.069 0.10587,-0.14393 0.525075,-0.31086 0.62006,-0.3512 0.530861,-0.22551 0.923398,-0.35148 1.483686,-0.54871 3.500958,-1.1547 7.029364,-2.24153 10.439259,-3.66998 0.62686,-0.27325 1.2605,-0.53029 1.880608,-0.81977 1.092,-0.50974 1.86274,-0.95455 2.91235,-1.52223 0.61386,-0.33201 1.7365,-0.92905 2.37362,-1.28231 0.26559,-0.14726 0.52798,-0.30072 0.79197,-0.45106 0.75529,-0.41843 1.50904,-0.85973 2.31364,-1.16787 0.13572,-0.0387 0.16472,-0.0548 0.28998,-0.0677 0.0368,-0.003 0.0743,-0.0117 0.1109,-0.006 0.0275,0.005 0.0998,0.051 0.0757,0.0365 -3.23278,-1.93135 -3.92811,-0.89202 -3.03401,-2.06935 0.016,-0.0126 0.0594,-0.0548 0.0478,-0.0377 -0.12208,0.18133 -0.62693,0.51859 -0.79639,0.62763 -0.14088,0.0907 -0.28711,0.172 -0.43065,0.258 -0.48351,0.2711 -0.67294,0.38969 -1.19514,0.62597 -0.97658,0.44186 -2.0031,0.73995 -3.05,0.93715 -0.64368,0.0758 -1.226138,0.13403 -1.868118,-0.0191 -0.20756,-0.0495 -0.783688,-0.3282 -0.608526,-0.20221 4.177334,3.00435 3.164204,2.13571 2.250674,1.31986 -0.10218,-0.14556 -0.21473,-0.28383 -0.30653,-0.43669 -0.658998,-1.09721 -0.952678,-2.39321 -1.164938,-3.65028 -0.0943,-0.87757 -0.14587,-1.13083 -0.14139,-2.02587 0.009,-1.66554 0.35281,-3.2917 0.7905,-4.88644 0.550198,-1.88607 1.112388,-3.7781 1.888298,-5.57929 0.27023,-0.63924 0.62569,-1.33008 0.66599,-2.04417 0.0101,-0.17921 0.0812,-0.42599 -0.0555,-0.53544 -1.93728,-1.55043 -2.377558,-1.73906 -3.838608,-2.44292 -1.235292,-0.45032 -2.523216,-0.73029 -3.831832,-0.47534 -0.581915,0.15924 -0.772001,0.19491 -1.353815,0.42711 -1.269648,0.50671 -2.432219,1.24734 -3.476251,2.15187 -0.588378,0.53301 -1.144218,0.97434 -1.611584,1.63289 -0.169941,0.23946 -0.282339,0.5179 -0.416344,0.78088 -0.482472,0.94687 -0.909626,1.92313 -1.297891,2.91551 -0.412335,1.12364 -0.438967,1.15591 -0.803104,2.31435 -0.474776,1.51043 -0.86747,3.0478 -1.367594,4.54988 -0.119571,0.34876 -0.462829,1.34366 -0.587837,1.73053 -0.06392,0.19781 -0.325711,0.45031 -0.18261,0.59656 1.517988,1.55147 2.519467,3.50625 3.415162,2.02043 0.445307,-0.84382 0.815247,-1.72739 1.063116,-2.65729 0.724594,-2.46472 1.549392,-4.91878 1.868421,-7.48599 0.06408,-0.49896 0.136428,-0.99686 0.192242,-1.49691 0.105301,-0.94336 0.176373,-1.89052 0.267079,-2.83552 0.04069,-0.42396 0.08289,-0.84777 0.12434,-1.27163 0.0357,-0.32472 0.07513,-0.64902 0.107101,-0.97415 0.01457,-0.148 0.02162,-0.29672 0.03241,-0.4451 z" />
    </g>
  </g>
</svg>
